# xmcd
#
# Track frame offsets:
#	150
#	16565
#	33465
#	46668
#	61286
#	79886
#	96951
#	113690
#	133993
#	150600
#	161060
#	185931
#	200290
#	219020
#	229904
#	244014
#	260864
#	275182
#	306277
#	320490
#
# Disc length: 4504
#
# Revision: 1
# Processed by: cddbd v1.5.2PL0 Copyright (c) Steve Scherf et al.
# Submitted via: kJams Pro 1.0a1.17
#
DISCID=1d119614
DTITLE=Unknown Artist - 100 Hits – Christmas Disc 3
DYEAR=2000
DGENRE=Various
TTITLE0=Frankie Vallie - December 1963
TTITLE1=Queen - Don't Stop Me Now
TTITLE2=Monkees, The - I'm a Believer
TTITLE3=Nolans, The - I'm in the mood for dancing
TTITLE4=Dexy's Midnight Runners - Come on Eileen
TTITLE5=Pointer Sisters, The - I'm so Excited
TTITLE6=Elton John - Crocodile Rock
TTITLE7=Journey - Don't Stop Believin
TTITLE8=Lou Bega - Mambo No 5
TTITLE9=Black Lace - Superman
TTITLE10=Hairspray - You can't stop the beat
TTITLE11=Sweet - Wig Wam Bam
TTITLE12=Benny Hill - Ernie
TTITLE13=Housemartins, The - Happy Hour
TTITLE14=Robbie Williams - Somthin Stupid
TTITLE15=Tom Jones and Cerys Matthews - Baby I'ts Cold Outside
TTITLE16=McFly - All about you
TTITLE17=Jeff Buckley - Hallelujah
TTITLE18=Gary Jules - Mad World
TTITLE19=Nizlopi - The JCB Song
EXTD=
EXTT0=
EXTT1=
EXTT2=
EXTT3=
EXTT4=
EXTT5=
EXTT6=
EXTT7=
EXTT8=
EXTT9=
EXTT10=
EXTT11=
EXTT12=
EXTT13=
EXTT14=
EXTT15=
EXTT16=
EXTT17=
EXTT18=
EXTT19=
PLAYORDER=
